# xmcd
#
# Track frame offsets:
#	150
#	17033
#	27990
#	39318
#	55664
#	75465
#	86908
#	105789
#	116242
#	126229
#
# Disc length: 1892 seconds
#
# Revision: 93155944
# Processed by: cddbd v1.5.2PL0 Copyright (c) Steve Scherf et al.
# Submitted via: EZCDAudioConverter 8.1.0.1
#
DISCID=7307620a
DTITLE=Justin Townes Earle - Absent Fathers
DYEAR=2015
DGENRE=Country
TTITLE0=Farther From Me
TTITLE1=Why
TTITLE2=Least I Got The Blues
TTITLE3=Call Ya Momma
TTITLE4=Day And Night
TTITLE5=Round The Bend
TTITLE6=When The One You Love Loses Faith
TTITLE7=Slow Monday
TTITLE8=Someone Will Pay
TTITLE9=Looking For A Place To Land
EXTD=
EXTT0=
EXTT1=
EXTT2=
EXTT3=
EXTT4=
EXTT5=
EXTT6=
EXTT7=
EXTT8=
EXTT9=
PLAYORDER=
